# xmcd CD database file
#
# Track frame offsets:
#	150
#	22212
#	37535
#
# Disc length: 791 seconds
#
# Revision: 0
# Processed by: cddbd v1.5PL3 Copyright (c) Steve Scherf et al.
# Submitted via: CDex 1.40Release
#
DISCID=18031503
DTITLE=宇徳 敬子 - あなたの夢の中そっと忍び込みたい
DYEAR=1993
DGENRE=J-POP
TTITLE0=あなたの夢の中そっと忍び込みたい
TTITLE1=夏の日の恋
TTITLE2=あなたの夢の中そっと忍び込みたい(オリジナル･カラオケ)
EXTD=YEAR: 1993
EXTT0=
EXTT1=
EXTT2=
PLAYORDER=
